<svg id="visual" viewBox="0 0 400 400" width="400" height="400" xmlns="http://www.w3.org/2000/svg" xmlns:xlink="http://www.w3.org/1999/xlink" version="1.1"><g transform="translate(217.75709452296394 203.53125165869983)"><path d="M90 -162C113.4 -142.5 126.9 -111.7 134.2 -82.9C141.5 -54 142.8 -27 141.6 -0.7C140.5 25.7 136.9 51.3 129.1 79.3C121.2 107.3 109.1 137.7 86.9 156C64.7 174.3 32.3 180.7 3 175.5C-26.3 170.3 -52.7 153.6 -80.8 138.6C-109 123.7 -138.9 110.6 -157.4 87.8C-175.9 65 -183 32.5 -172.9 5.8C-162.8 -20.8 -135.5 -41.7 -115.3 -61.4C-95 -81.2 -81.8 -99.9 -63.7 -122.5C-45.7 -145.1 -22.8 -171.5 5.2 -180.6C33.3 -189.7 66.7 -181.5 90 -162" fill="#99f6e4"></path></g></svg>