<svg id="visual" viewBox="0 0 400 400" width="400" height="400" xmlns="http://www.w3.org/2000/svg" xmlns:xlink="http://www.w3.org/1999/xlink" version="1.1"><g transform="translate(172.26333332333348 199.03661910191994)"><path d="M68.8 -110.7C95.9 -103.5 129.4 -98.8 152.3 -80.7C175.2 -62.7 187.6 -31.3 185.4 -1.3C183.3 28.8 166.5 57.7 145.1 78.3C123.7 98.9 97.6 111.4 72.6 121.5C47.7 131.6 23.8 139.3 -1 141C-25.8 142.7 -51.7 138.5 -70.3 124.7C-88.9 111 -100.3 87.7 -110.4 65.4C-120.5 43 -129.2 21.5 -130.1 -0.5C-131 -22.5 -123.9 -45 -115 -69.4C-106.1 -93.8 -95.3 -120.1 -75.8 -131.7C-56.3 -143.2 -28.2 -140.1 -3.7 -133.8C20.8 -127.4 41.7 -117.8 68.8 -110.7" fill="#99f6e4"></path></g></svg>